# xmcd
#
# Track frame offsets:
#	150
#	13783
#	28174
#	41640
#	58292
#	72596
#	86345
#	100828
#	115297
#	130174
#
# Disc length: 1919 seconds
#
# Revision: 1
# Processed by: cddbd v1.5.2PL0 Copyright (c) Steve Scherf et al.
# Submitted via: audiograbber 1.83.01
#
DISCID=8b077d0a
DTITLE=Various Artist - Sirens Of Song-Torch Songs Of
DYEAR=1900
DGENRE=Jazz
TTITLE0=Kitty Kallen - When They Ask About You
TTITLE1=Monica Lewis - It's The Bluest Kind Of Blues
TTITLE2=Betty Grable - Harry James Orch - I Can't Begin To Tell You
TTITLE3=Bea Wain - Larry Clinton Orch - Deep Purple
TTITLE4=Frances Langford - Blue Moon
TTITLE5=Dinah Shore - The Gypsy
TTITLE6=Jane Russell - Body and Soul
TTITLE7=Peggy Lee - Bali Ha'i
TTITLE8=Martha Tilton - I'll Walk Alone
TTITLE9=Edith Piaf - La Vie En Rose
EXTD=
EXTT0=
EXTT1=
EXTT2=
EXTT3=
EXTT4=
EXTT5=
EXTT6=
EXTT7=
EXTT8=
EXTT9=
PLAYORDER=
